<?xml version="1.0" encoding="UTF-8" standalone="no" ?>
<!DOCTYPE svg PUBLIC "-//W3C//DTD SVG 1.1//EN" "http://www.w3.org/Graphics/SVG/1.1/DTD/svg11.dtd">
<svg xmlns="http://www.w3.org/2000/svg" xmlns:xlink="http://www.w3.org/1999/xlink" version="1.1" width="1280" height="1024" viewBox="0 0 1280 1024" xml:space="preserve">
<desc>Created with Fabric.js 5.3.0</desc>
<defs>
</defs>
<g transform="matrix(1 0 0 1 640 512)" id="background-logo"  >
<rect style="stroke: none; stroke-width: 0; stroke-dasharray: none; stroke-linecap: butt; stroke-dashoffset: 0; stroke-linejoin: miter; stroke-miterlimit: 4; fill: rgb(255,255,255); fill-opacity: 0; fill-rule: nonzero; opacity: 1;"  paint-order="stroke"  x="-640" y="-512" rx="0" ry="0" width="1280" height="1024" />
</g>
<g transform="matrix(1.9211538461538462 0 0 1.9211538461538462 640 415.2851170111211)" id="logo-logo"  >
<g style=""  paint-order="stroke"   >
		<g transform="matrix(0.8344897203358166 0 0 -0.8344897203358166 -39.23562042588918 44.42214093572042)"  >
<path style="stroke: none; stroke-width: 1; stroke-dasharray: none; stroke-linecap: butt; stroke-dashoffset: 0; stroke-linejoin: miter; stroke-miterlimit: 4; fill: rgb(220,179,96); fill-rule: nonzero; opacity: 1;"  paint-order="stroke"  transform=" translate(-50.8675, 41.747)" d="M 0 0 L 0 -26.369 L 101.735 -83.494 L 101.735 -57.123999999999995 z" stroke-linecap="round" />
</g>
		<g transform="matrix(0.8344897203358166 0 0 -0.8344897203358166 0 -11.385110152485623)"  >
<path style="stroke: none; stroke-width: 1; stroke-dasharray: none; stroke-linecap: butt; stroke-dashoffset: 0; stroke-linejoin: miter; stroke-miterlimit: 4; fill: rgb(220,179,96); fill-rule: nonzero; opacity: 1;"  paint-order="stroke"  transform=" translate(97.885, -6.788500000000013)" d="M 0 0 L 0 88.125 L -75.507 88.125 L -33.934000000000005 65.132 L -22.993000000000002 65.132 L -22.993000000000002 38.845 L -112.78999999999999 88.125 L -195.76999999999998 88.125 L -195.76999999999998 55.576 L -42.171 -27.849 L -55.133 -45.835 L -195.77 29.485 L -195.77 3.403 L -50.22 -74.54799999999999 L -8.68 -19.873999999999988 L -165.19 65.132 L -118.684 65.132 z" stroke-linecap="round" />
</g>
</g>
</g>
<g transform="matrix(1.9211538461538462 0 0 1.9211538461538462 641.3688221153845 644.4406364415747)" id="text-logo"  >
<g style=""  paint-order="stroke"   >
		<g transform="matrix(1 0 0 1 -5.684342e-14 0)" id="text-logo-path-0"  >
<path style="stroke: none; stroke-width: 0; stroke-dasharray: none; stroke-linecap: butt; stroke-dashoffset: 0; stroke-linejoin: miter; stroke-miterlimit: 4; fill: rgb(220,179,96); fill-rule: nonzero; opacity: 1;"  paint-order="stroke"  transform=" translate(-219.545, 13.3)" d="M 2.89 -26.6 L 2.89 0 L 8.97 0 L 8.97 -9.31 L 19.91 -9.31 L 19.91 -14.63 L 8.97 -14.63 L 8.97 -20.9 L 22.57 -20.9 L 22.57 -26.6 Z M 53.28 0.61 C 61.29 0.61 67.15 -4.9 67.15 -13.26 C 67.15 -21.36 61.67 -27.21 53.28 -27.21 C 45.26 -27.21 39.41 -21.66 39.41 -13.26 C 39.41 -5.24 44.92 0.61 53.28 0.61 Z M 53.28 -5.4 C 48.94 -5.4 45.75 -8.78 45.75 -13.26 C 45.75 -17.67 48.72 -21.2 53.28 -21.2 C 57.61 -21.2 60.8 -17.78 60.8 -13.26 C 60.8 -8.93 57.8 -5.4 53.28 -5.4 Z M 86.41 0 L 92.49 0 L 92.49 -5.81 L 97.66 -5.81 L 101.23 0 L 108.45 0 L 103.51 -7.52 C 106.21 -9.31 108 -12.43 108 -16.26 C 108 -22.12 103.74 -26.6 97.66 -26.6 L 86.41 -26.6 Z M 92.49 -11.51 L 92.49 -20.9 L 96.82 -20.9 C 99.52 -20.9 101.54 -19 101.54 -16.23 C 101.54 -13.49 99.67 -11.51 96.82 -11.51 Z M 128.44 -26.6 L 128.44 0 L 148.12 0 L 148.12 -5.7 L 134.52 -5.7 L 134.52 -10.45 L 145.46 -10.45 L 145.46 -15.77 L 134.52 -15.77 L 134.52 -20.9 L 148.12 -20.9 L 148.12 -26.6 Z M 190.23 -27.21 L 180.99 -17.94 L 171.76 -27.21 L 167.2 -22.53 L 176.4 -13.3 L 167.2 -4.07 L 171.76 0.61 L 180.99 -8.66 L 190.23 0.61 L 194.79 -4.07 L 185.59 -13.3 L 194.79 -22.53 Z M 235.83 0 L 242.48 0 L 244.15 -3.91 L 256.96 -3.91 L 258.63 0 L 265.28 0 L 253.88 -26.6 L 247.23 -26.6 Z M 246.43 -9.23 L 250.57 -18.85 L 254.68 -9.23 Z M 284.66 -26.6 L 284.66 0 L 290.74 0 L 290.74 -16.42 L 304.04 0 L 310.12 0 L 310.12 -26.6 L 304.04 -26.6 L 304.04 -10.18 L 290.74 -26.6 Z M 355.98 -5.55 L 355.98 -14.82 L 342.53 -14.82 L 342.53 -10.26 L 349.9 -10.26 L 349.9 -7.79 C 348.16 -6.12 346.07 -5.4 343.71 -5.4 C 339.38 -5.4 336.19 -8.78 336.19 -13.26 C 336.19 -17.67 339.15 -21.2 343.71 -21.2 C 346.41 -21.2 348.88 -19.84 350.28 -17.75 L 355.64 -20.9 C 353.32 -24.78 349.14 -27.21 343.71 -27.21 C 335.69 -27.21 329.84 -21.66 329.84 -13.26 C 329.84 -5.24 335.35 0.61 343.71 0.61 C 348.92 0.61 353.32 -1.63 355.98 -5.55 Z M 376.24 -26.6 L 376.24 0 L 395.92 0 L 395.92 -5.7 L 382.32 -5.7 L 382.32 -10.45 L 393.26 -10.45 L 393.26 -15.77 L 382.32 -15.77 L 382.32 -20.9 L 395.92 -20.9 L 395.92 -26.6 Z M 416.52 -26.6 L 416.52 0 L 436.2 0 L 436.2 -5.7 L 422.6 -5.7 L 422.6 -26.6 Z" stroke-linecap="round" />
</g>
</g>
</g>
<g transform="matrix(1.9211538461538462 0 0 1.9211538461538462 639.9711826923077 727.1559928400268)" id="tagline-3f41a7dc-3fe8-4f3a-a30c-95b4516446a6-logo"  >
<g style=""  paint-order="stroke"   >
		<g transform="matrix(1 0 0 1 0 0)" id="tagline-3f41a7dc-3fe8-4f3a-a30c-95b4516446a6-logo-path-0"  >
<path style="stroke: none; stroke-width: 0; stroke-dasharray: none; stroke-linecap: butt; stroke-dashoffset: 0; stroke-linejoin: miter; stroke-miterlimit: 4; fill: rgb(220,179,96); fill-rule: nonzero; opacity: 1;"  paint-order="stroke"  transform=" translate(-135.21, 10.5)" d="M 2.4 0 L 5.7 0 L 5.7 -21 L 1.5 -21 L 1.2 -18.3 L 2.4 -18.3 Z M 24.9 0 L 28.2 0 L 28.2 -15.69 L 36.15 0 L 40.35 0 L 40.35 -21 L 37.05 -21 L 37.05 -5.31 L 29.1 -21 L 24 -21 L 23.7 -18.3 L 24.9 -18.3 Z M 65.07 0 L 68.82 0 L 75.42 -21 L 72.12 -21 L 66.96 -4.53 L 61.77 -21 L 57.93 -21 L 57.75 -18.3 L 59.31 -18.3 Z M 94.02 0 L 106.53 0 L 106.83 -2.7 L 97.32 -2.7 L 97.32 -9.15 L 104.67 -9.15 L 104.97 -11.85 L 97.32 -11.85 L 97.32 -18.3 L 106.23 -18.3 L 106.53 -21 L 93.12 -21 L 92.82 -18.3 L 94.02 -18.3 Z M 130.2 0.18 C 134.67 0.18 137.73 -2.76 137.73 -6.42 C 137.73 -11.94 127.8 -11.88 127.8 -15.48 C 127.8 -17.52 129.84 -18.18 130.86 -18.18 C 132.81 -18.18 133.8 -17.28 134.43 -16.47 L 136.29 -19.11 C 135.06 -20.19 133.29 -21.18 131.13 -21.18 C 126.87 -21.18 124.5 -18.63 124.5 -15.72 C 124.5 -9.21 134.43 -9.63 134.43 -6.03 C 134.43 -4.11 132.57 -2.82 130.29 -2.82 C 128.31 -2.82 126.27 -4.32 125.4 -5.34 L 123.63 -2.94 C 125.43 -0.87 127.59 0.18 130.2 0.18 Z M 159.72 0 L 163.02 0 L 163.02 -18.3 L 168.18 -18.3 L 168.48 -21 L 154.53 -21 L 154.23 -18.3 L 159.72 -18.3 Z M 194.82 0.18 C 200.76 0.18 204.96 -4.11 204.96 -10.53 C 204.96 -16.89 200.76 -21.18 194.82 -21.18 C 188.88 -21.18 184.68 -16.89 184.68 -10.53 C 184.68 -4.11 188.88 0.18 194.82 0.18 Z M 194.82 -2.82 C 191.13 -2.82 187.98 -5.4 187.98 -10.53 C 187.98 -15.6 191.13 -18.18 194.82 -18.18 C 198.51 -18.18 201.66 -15.6 201.66 -10.53 C 201.66 -5.4 198.51 -2.82 194.82 -2.82 Z M 224.16 0 L 227.46 0 L 227.46 -8.55 L 230.88 -8.55 L 235.02 0 L 238.62 0 L 234.27 -8.94 C 236.58 -9.72 237.99 -11.73 237.99 -14.73 C 237.99 -18.48 235.65 -21 231.81 -21 L 223.26 -21 L 222.96 -18.3 L 224.16 -18.3 Z M 227.46 -11.25 L 227.46 -18.3 L 231.18 -18.3 C 233.34 -18.3 234.69 -17.01 234.69 -14.76 C 234.69 -12.66 233.37 -11.25 231.18 -11.25 Z M 261.69 0.18 C 266.16 0.18 269.22 -2.76 269.22 -6.42 C 269.22 -11.94 259.29 -11.88 259.29 -15.48 C 259.29 -17.52 261.33 -18.18 262.35 -18.18 C 264.3 -18.18 265.29 -17.28 265.92 -16.47 L 267.78 -19.11 C 266.55 -20.19 264.78 -21.18 262.62 -21.18 C 258.36 -21.18 255.99 -18.63 255.99 -15.72 C 255.99 -9.21 265.92 -9.63 265.92 -6.03 C 265.92 -4.11 264.06 -2.82 261.78 -2.82 C 259.8 -2.82 257.76 -4.32 256.89 -5.34 L 255.12 -2.94 C 256.92 -0.87 259.08 0.18 261.69 0.18 Z" stroke-linecap="round" />
</g>
</g>
</g>
</svg>